<svg xmlns="http://www.w3.org/2000/svg" width="30.134" height="31.72" viewBox="0 0 30.134 31.72">
  <g id="Botao-Configuracoes" transform="translate(-2.5 -2)">
    <g id="Setting" transform="translate(2.5 2)">
      <path id="Path_104" data-name="Path 104" d="M16.2,0A3.413,3.413,0,0,1,19.09,1.649a2.82,2.82,0,0,1,.438,1.681,2.451,2.451,0,0,0,.373,1.4,3.129,3.129,0,0,0,4.085,1.094,3.35,3.35,0,0,1,4.555,1.205h0L29.625,8.9a3.215,3.215,0,0,1-1.2,4.488,2.889,2.889,0,0,0-1.037,3.965,2.454,2.454,0,0,0,1,1.015,3.651,3.651,0,0,1,1.313,1.253,3.2,3.2,0,0,1-.032,3.251h0l-1.135,1.9a3.326,3.326,0,0,1-4.587,1.174,2.585,2.585,0,0,0-1.426-.365,3.027,3.027,0,0,0-3,2.887,3.28,3.28,0,0,1-3.355,3.251h-2.2A3.284,3.284,0,0,1,10.6,28.469a3,3,0,0,0-2.982-2.887,2.516,2.516,0,0,0-1.426.365,3.427,3.427,0,0,1-1.718.476,3.384,3.384,0,0,1-2.885-1.649h0L.466,22.87a3.164,3.164,0,0,1-.032-3.251,3.359,3.359,0,0,1,1.3-1.253,2.592,2.592,0,0,0,1.021-1.015A2.909,2.909,0,0,0,1.7,13.386,3.242,3.242,0,0,1,.5,8.9h0L1.585,7.026A3.369,3.369,0,0,1,6.155,5.821a3.114,3.114,0,0,0,4.068-1.094,2.451,2.451,0,0,0,.373-1.4,2.83,2.83,0,0,1,.454-1.681A3.481,3.481,0,0,1,13.919,0H16.2ZM15.086,11.388a4.482,4.482,0,1,0,0,8.961,4.481,4.481,0,1,0,0-8.961Z" fill="#dbe9df"/>
    </g>
  </g>
</svg>
