<svg xmlns="http://www.w3.org/2000/svg" width="27.325" height="32.147" viewBox="0 0 27.325 32.147">
  <g id="Botao-Notificacões" transform="translate(-23.5 -6.415)">
    <g id="Notification" transform="translate(23.5 6.415)">
      <path id="Path_103" data-name="Path 103" d="M10.389,27.691a41.533,41.533,0,0,1,6.5,0c.687.159,1.43.529,1.43,1.339A2.5,2.5,0,0,1,17.2,30.917a5.842,5.842,0,0,1-2.754,1.175,6.1,6.1,0,0,1-1.62,0,5.815,5.815,0,0,1-2.754-1.177A2.494,2.494,0,0,1,8.959,29.03C8.959,28.22,9.7,27.85,10.389,27.691ZM13.735,0a11.318,11.318,0,0,1,8.788,4.219,8.911,8.911,0,0,1,1.92,6.02h0v.685a6.247,6.247,0,0,0,1.708,4.58,5.4,5.4,0,0,1,1.174,3.714,5.81,5.81,0,0,1-1.387,3.822,7.292,7.292,0,0,1-4.661,2.271c-2.526.215-5.053.4-7.614.4a66.937,66.937,0,0,1-7.614-.4,7.284,7.284,0,0,1-4.661-2.271A5.812,5.812,0,0,1,0,19.217,5.411,5.411,0,0,1,1.174,15.5a6.1,6.1,0,0,0,1.709-4.58h0v-.685a9.045,9.045,0,0,1,2.062-6.2A11.37,11.37,0,0,1,13.591,0h.144Z" transform="translate(0 0)" fill="#dbeadf"/>
    </g>
  </g>
</svg>
