<svg id="Icone-Acompanhamento" xmlns="http://www.w3.org/2000/svg" width="83" height="69" viewBox="0 0 83 69">
  <path id="Path_52" data-name="Path 52" d="M530.36,383.8h-8.369a8.579,8.579,0,0,1,1.824,5.286v17.959a8.654,8.654,0,0,1-8.628,8.628H494.1a7.707,7.707,0,0,0,7.165,4.916h29.1a7.706,7.706,0,0,0,7.684-7.683V391.483A7.712,7.712,0,0,0,530.36,383.8Z" transform="translate(-455.044 -362.611)" fill="#8184af"/>
  <path id="Path_53" data-name="Path 53" d="M129.711,191V163.8a12.478,12.478,0,0,0-12.488-12.4H75.788A12.478,12.478,0,0,0,63.3,163.8V191a12.473,12.473,0,0,0,11.46,12.35s-1.851,14.279.454,14.279S92.655,203.4,92.655,203.4h24.559a12.48,12.48,0,0,0,12.5-12.4Zm-39.26,6.882-1.611,1.507c-.028.028-3.194,3-6.776,6.166-.787.689-1.5,1.314-2.157,1.884.176-1.92.361-3.363.361-3.381l.741-5.725-5.795-.478A6.945,6.945,0,0,1,68.854,191V163.8a6.76,6.76,0,0,1,2.046-4.852,6.915,6.915,0,0,1,4.888-2.031h41.435a6.96,6.96,0,0,1,6.934,6.882V191a6.76,6.76,0,0,1-2.046,4.852,6.915,6.915,0,0,1-4.888,2.031Z" transform="translate(-63.3 -151.4)" fill="#45484c"/>
  <path id="Path_54" data-name="Path 54" d="M501.9,337.346a2.774,2.774,0,1,0-1.12,5.434,7.824,7.824,0,0,1,6.23,7.637V366.8a7.842,7.842,0,0,1-6.693,7.72l-3.027.435.722,2.972c.185.75.361,1.555.537,2.342-1.629-1.518-3.453-3.259-5.11-4.879l-.805-.8H477.111c-2.027,0-3.388-.13-4.369-.8a2.778,2.778,0,0,0-3.129,4.592c2.379,1.62,5.119,1.759,7.5,1.759h13.256c.926.9,2.527,2.435,4.166,3.962,1.5,1.4,2.74,2.509,3.684,3.323,1.851,1.574,2.712,2.138,3.851,2.138a2.912,2.912,0,0,0,2.3-1.12c.935-1.194.944-2.694.046-7.285-.13-.667-.268-1.315-.4-1.907a13.433,13.433,0,0,0,8.554-12.46V350.417A13.4,13.4,0,0,0,501.9,337.346Z" transform="translate(-431.723 -320.575)" fill="#45484c"/>
  <path id="Path_55" data-name="Path 55" d="M309.284,448.628a12.385,12.385,0,0,1-9.146-4.453,13.361,13.361,0,0,1-3.638-8.461v-2.749l2.749-.028c.037,0,3.351-.037,8.831-.037a2.777,2.777,0,1,1,0,5.554c-2.064,0-3.814.009-5.2.009a10.481,10.481,0,0,0,1.4,2,6.122,6.122,0,0,0,10.016,0,10.175,10.175,0,0,0,1.426-2.055,2.777,2.777,0,0,1,.555-5.5h.009c2.509.009,3.009.018,3.11.028l2.675.1v2.675a13.361,13.361,0,0,1-3.638,8.461,12.4,12.4,0,0,1-9.146,4.453ZM319.2,438.491Z" transform="translate(-275.218 -407.08)" fill="#52a76e"/>
</svg>
