<svg xmlns="http://www.w3.org/2000/svg" width="49" height="49" viewBox="0 0 49 49">
  <g id="Icone-Seguranca-e-Privacidade" transform="translate(-40 -377)">
    <circle id="Ellipse_4" data-name="Ellipse 4" cx="24.5" cy="24.5" r="24.5" transform="translate(40 377)" fill="#6bcbef"/>
    <g id="_15._Insurance" data-name="15. Insurance" transform="translate(49 386.001)">
      <path id="Path_125" data-name="Path 125" d="M16,32a1.19,1.19,0,0,1-.32-.05A18.53,18.53,0,0,1,3,14.35V6A1,1,0,0,1,4,5,15.75,15.75,0,0,0,15.24.34,1.13,1.13,0,0,1,16,0h0a1,1,0,0,1,.73.27A15.83,15.83,0,0,0,28,5a1,1,0,0,1,1,1v8.35A18.53,18.53,0,0,1,16.32,32,1.19,1.19,0,0,1,16,32ZM5,7v7.38A16.53,16.53,0,0,0,16,29.94,16.53,16.53,0,0,0,27,14.35V7A17.72,17.72,0,0,1,16,2.38,17.75,17.75,0,0,1,5,7Z" fill="#fff"/>
      <path id="Path_126" data-name="Path 126" d="M14,10h4v3.18a.82.82,0,0,1-.82.82H14.82a.82.82,0,0,1-.82-.82Z" fill="#fff"/>
      <path id="Path_127" data-name="Path 127" d="M20.29,23H11.71A2.72,2.72,0,0,1,9,20.29V11.71A2.72,2.72,0,0,1,11.71,9h8.58A2.72,2.72,0,0,1,23,11.71v8.58A2.72,2.72,0,0,1,20.29,23ZM11.71,11a.71.71,0,0,0-.71.71v8.58a.71.71,0,0,0,.71.71h8.58a.71.71,0,0,0,.71-.71V11.71a.71.71,0,0,0-.71-.71Z" fill="#fff"/>
    </g>
  </g>
</svg>
