<svg id="Icone-Anotacoes" xmlns="http://www.w3.org/2000/svg" width="82.759" height="83" viewBox="0 0 82.759 83">
  <path id="Path_91" data-name="Path 91" d="M176.9,762.2h-9.839a3.006,3.006,0,1,0,0,6.011H176.9a3.006,3.006,0,1,0,0-6.011Zm-22.7,0h-34.1a3.006,3.006,0,1,0,0,6.011h34.1a3.006,3.006,0,1,0,0-6.011Z" transform="translate(-115.226 -697.617)" fill="#52a76e"/>
  <path id="Path_92" data-name="Path 92" d="M786.079,130.023l6.567,6.567-5.809,5.809-6.567-6.567Z" transform="translate(-711.953 -123.628)" fill="#8184af"/>
  <path id="Path_93" data-name="Path 93" d="M163.053,159.277H108.159c-5.38,0-9.759-4.073-9.759-9.078V86.478c0-5,4.378-9.078,9.759-9.078h42a2.8,2.8,0,1,1,0,5.592h-42a3.63,3.63,0,0,0-3.747,3.486V150.2a3.63,3.63,0,0,0,3.747,3.486h54.895A3.63,3.63,0,0,0,166.8,150.2V113.385a3.014,3.014,0,0,1,6.011,0v36.824C172.812,155.2,168.434,159.277,163.053,159.277Z" transform="translate(-98.4 -76.277)" fill="#45484c"/>
  <path id="Path_94" data-name="Path 94" d="M403.177,71.791l-3.927-3.927c-2.4-2.4-6.522-2.194-9.187.471l-35.8,35.808L347,124.041l19.9-7.254,35.808-35.808a7.2,7.2,0,0,0,2.114-4.408A5.923,5.923,0,0,0,403.177,71.791Zm-39.586,39.8-6.522,2.375,2.375-6.522,26.521-26.521,4.1,4.178Zm34.867-34.857-4.138,4.138-4.1-4.178,4.1-4.1a1.191,1.191,0,0,1,.761-.391l3.767,3.767a1.332,1.332,0,0,1-.391.761Z" transform="translate(-322.092 -66.189)" fill="#45484c"/>
</svg>
