<svg xmlns="http://www.w3.org/2000/svg" width="49" height="49" viewBox="0 0 49 49">
  <g id="Icone-Notificacoes" transform="translate(-40 -296)">
    <circle id="Ellipse_4" data-name="Ellipse 4" cx="24.5" cy="24.5" r="24.5" transform="translate(40 296)" fill="#6bcbef"/>
    <g id="_1._Online_Health" data-name="1. Online Health" transform="translate(49 305)">
      <path id="Path_138" data-name="Path 138" d="M18.21,32H7.79A4.8,4.8,0,0,1,3,27.21V4.79A4.8,4.8,0,0,1,7.79,0H18.21A4.8,4.8,0,0,1,23,4.79V5a1,1,0,0,1-2,0V4.79A2.79,2.79,0,0,0,18.21,2H7.79A2.79,2.79,0,0,0,5,4.79V27.21A2.79,2.79,0,0,0,7.79,30H18.21A2.79,2.79,0,0,0,21,27.21V27a1,1,0,0,1,2,0v.21A4.8,4.8,0,0,1,18.21,32Z" fill="#fff"/>
      <path id="Path_139" data-name="Path 139" d="M13,28a2,2,0,1,1,2-2A2,2,0,0,1,13,28ZM13,26Z" fill="#fff"/>
      <path id="Path_140" data-name="Path 140" d="M16,6H10a1,1,0,0,1,0-2h6a1,1,0,0,1,0,2Z" fill="#fff"/>
      <path id="Path_141" data-name="Path 141" d="M22,24a8,8,0,0,1-5.289-2H14a1,1,0,0,1-.89-1.45l1.19-2.39A8,8,0,1,1,22,24Zm-6.38-4h1.49a.94.94,0,0,1,.69.29A6,6,0,1,0,16,16a6.1,6.1,0,0,0,.32,1.93,1,1,0,0,1-.05.77Z" fill="#fff"/>
      <path id="Path_142" data-name="Path 142" d="M24,15H23V14a1,1,0,0,0-2,0v1H20a1,1,0,0,0,0,2h1v1a1,1,0,0,0,2,0V17h1a1,1,0,0,0,0-2Z" fill="#fff"/>
    </g>
  </g>
</svg>
