<svg id="Icon-Calendar" xmlns="http://www.w3.org/2000/svg" width="26.851" height="26.851" viewBox="0 0 26.851 26.851">
  <path id="Path_120" data-name="Path 120" d="M24.334,0H2.517A2.517,2.517,0,0,0,0,2.517v18.46a2.517,2.517,0,0,0,2.517,2.517H5.035a.839.839,0,0,0,0-1.678H2.517a.839.839,0,0,1-.839-.839V6.713H25.173V20.977a.839.839,0,0,1-.839.839H20.977a.839.839,0,1,0,0,1.678h3.356a2.517,2.517,0,0,0,2.517-2.517V2.517A2.517,2.517,0,0,0,24.334,0ZM1.678,5.035V2.517a.839.839,0,0,1,.839-.839H24.334a.839.839,0,0,1,.839.839V5.035Z" fill="rgba(103,103,103,0.97)"/>
  <path id="Path_121" data-name="Path 121" d="M26.517,11.678H24.839a.839.839,0,1,1,0-1.678h1.678a.839.839,0,1,1,0,1.678Z" transform="translate(-3.862 -1.609)" fill="#52a76e"/>
  <path id="Path_122" data-name="Path 122" d="M6.517,15.678H4.839a.839.839,0,0,1,0-1.678H6.517a.839.839,0,1,1,0,1.678Z" transform="translate(-0.644 -2.253)" fill="#52a76e"/>
  <path id="Path_123" data-name="Path 123" d="M6.517,11.678H4.839a.839.839,0,1,1,0-1.678H6.517a.839.839,0,1,1,0,1.678Z" transform="translate(-0.644 -1.609)" fill="#52a76e"/>
  <path id="Path_124" data-name="Path 124" d="M20.749,21.81A3.818,3.818,0,0,0,16.94,18a3.768,3.768,0,0,0-2.685,1.116l-4.137,4.137A3.81,3.81,0,0,0,12.8,29.747h0a3.768,3.768,0,0,0,2.685-1.116l2.064-2.064h0L19.616,24.5a3.751,3.751,0,0,0,1.133-2.694Zm-6.436,5.639a2.115,2.115,0,0,1-1.5.621h0a2.131,2.131,0,0,1-1.5-3.633l1.477-1.468,3,3Zm4.758-5.639a2.148,2.148,0,0,1-.621,1.5l-1.477,1.477-3.012-3.012L15.438,20.3a2.131,2.131,0,0,1,3.633,1.51Z" transform="translate(-1.45 -2.896)" fill="#52a76e"/>
</svg>
