<svg id="Icon-Refeicoes" xmlns="http://www.w3.org/2000/svg" width="83" height="77.402" viewBox="0 0 83 77.402">
  <path id="Path_56" data-name="Path 56" d="M655,326.64a19.878,19.878,0,0,0-11.2,1.94,12.42,12.42,0,0,1,2.231,7.513,13.383,13.383,0,0,1-1.53,6.453,21.556,21.556,0,0,0,8.94,2.786c8.265.786,15.317-2.769,15.744-7.932S663.262,327.427,655,326.64Z" transform="translate(-587.604 -304.593)" fill="#8184af"/>
  <path id="Path_57" data-name="Path 57" d="M67.2,494l.093,2.65a26.866,26.866,0,0,0,6.489,16.274,39.536,39.536,0,0,0,15.655,11.052,2.889,2.889,0,0,0,3.683-1.316,2.476,2.476,0,0,0-1.436-3.376,33.992,33.992,0,0,1-13.463-9.47,22.662,22.662,0,0,1-5.072-10.684h71.1a22.727,22.727,0,0,1-5.165,10.8A34.056,34.056,0,0,1,125.4,519.4a2.491,2.491,0,0,0-1.464,3.368,2.812,2.812,0,0,0,2.573,1.556,3.054,3.054,0,0,0,1.1-.205c13.473-5.316,22.1-15.838,22.5-27.471L150.2,494Z" transform="translate(-67.2 -453.719)" fill="#45484c"/>
  <path id="Path_58" data-name="Path 58" d="M387.869,800.1h-13.59a5.479,5.479,0,1,0,0,10.958h13.59a5.479,5.479,0,0,0,0-10.958Zm0,5.821h-13.59a.35.35,0,1,1,0-.7h13.59a.35.35,0,0,1,0,.7Z" transform="translate(-339.564 -733.656)" fill="#45484c"/>
  <path id="Path_59" data-name="Path 59" d="M250.995,316.434a2.566,2.566,0,1,0-4.171,2.992,7.562,7.562,0,0,1,1.419,4.419,2.564,2.564,0,1,0,5.128,0A12.613,12.613,0,0,0,250.995,316.434Zm-5.616-4.419A12.74,12.74,0,0,0,227.9,323.836a2.564,2.564,0,1,0,5.128,0,7.613,7.613,0,0,1,7.607-7.607,7.411,7.411,0,0,1,2.829.547,2.566,2.566,0,0,0,1.915-4.761Z" transform="translate(-212.289 -290.789)" fill="#52a76e"/>
  <path id="Path_60" data-name="Path 60" d="M166.924,113.229a24.692,24.692,0,0,0-32.387,0,21.82,21.82,0,0,0-7.409,14.65,2.655,2.655,0,0,0,2.62,2.735,2.75,2.75,0,0,0,3.016-2.376,16.837,16.837,0,0,1,5.721-11.342,18.626,18.626,0,0,1,24.488,0,16.877,16.877,0,0,1,5.721,11.342,2.731,2.731,0,0,0,2.818,2.385,1.534,1.534,0,0,0,.2-.009,2.66,2.66,0,0,0,2.62-2.735,21.82,21.82,0,0,0-7.409-14.65Zm32.585,9.5a15.221,15.221,0,0,0-4.534-4.376l5.081-4.983a2.4,2.4,0,0,0-.16-3.624,3.038,3.038,0,0,0-4,.145l-6.127,6.017c-.471-.154-.952-.3-1.442-.427l7.767-13.607a2.447,2.447,0,0,0-1.216-3.453,2.966,2.966,0,0,0-3.808,1.1l-8.6,15.069c-.518-.026-1.046-.043-1.574-.043a29.625,29.625,0,0,0-6.061.615,2.572,2.572,0,0,0-2.121,3.077,2.852,2.852,0,0,0,3.393,1.923,23.181,23.181,0,0,1,4.779-.487,20.038,20.038,0,0,1,10.774,2.846c2.554,1.65,3.959,3.761,3.959,5.94a2.841,2.841,0,0,0,5.655,0A10.323,10.323,0,0,0,199.509,122.734Z" transform="translate(-121.999 -98.138)" fill="#45484c"/>
</svg>
