<svg id="Icone-Exercicios" xmlns="http://www.w3.org/2000/svg" width="66.892" height="83" viewBox="0 0 66.892 83">
  <path id="Path_65" data-name="Path 65" d="M65.114,542.024c-3.107,3.98-3.387,8.961-.628,11.125s7.529.687,10.637-3.293h0c3.107-3.98,3.386-8.961.628-11.125s-7.529-.687-10.637,3.293Z" transform="translate(-56.346 -481.02)" fill="#8184af"/>
  <path id="Path_66" data-name="Path 66" d="M293.6,417.864h0A11.783,11.783,0,0,0,291.423,405c-4.376-4.795-11.6-5.342-16.141-1.2a10.675,10.675,0,0,0-3.386,6.54c-.5.524-1.012,1.047-1.548,1.536-5.493,5.016-6.633,12.708-2.549,17.189s11.859,4.038,17.351-.978c2.6-2.362,7.89-7.308,8.449-10.253Zm-14.081,10.381a10.846,10.846,0,0,1-3.724.908,6.619,6.619,0,0,1-7.332-8.018,10.864,10.864,0,0,1,1.245-3.631,13.075,13.075,0,0,1,2.677-3.387c.617-.57,1.21-1.164,1.7-1.687l.675-.71.128-.978a7.587,7.587,0,0,1,2.432-4.713c3.305-3.014,8.635-2.56,11.894,1a9.269,9.269,0,0,1,2.316,4.736c.268,1.687-.815,5.179-.815,5.179s-.407,1.594-2.793,4.224c-1.571,1.734-3.375,3.421-4.783,4.7a13.022,13.022,0,0,1-3.619,2.362h0Zm1.92-36.867a4.7,4.7,0,1,0-.3,6.633,4.693,4.693,0,0,0,.3-6.633Z" transform="translate(-235.512 -350.343)" fill="#45484c"/>
  <path id="Path_67" data-name="Path 67" d="M428.76,424a2.521,2.521,0,1,0,3.4,3.724h0a2.521,2.521,0,1,0-3.4-3.724Z" transform="translate(-379.18 -380.598)" fill="#45484c"/>
  <path id="Path_68" data-name="Path 68" d="M482.96,451.3a2.521,2.521,0,0,0,3.4,3.724h0a2.521,2.521,0,0,0-3.4-3.724Z" transform="translate(-427.072 -404.66)" fill="#45484c"/>
  <path id="Path_69" data-name="Path 69" d="M519.76,492.8a2.521,2.521,0,0,0,3.4,3.724h0a2.521,2.521,0,1,0-3.4-3.724Z" transform="translate(-459.59 -441.238)" fill="#45484c"/>
  <path id="Path_70" data-name="Path 70" d="M541.26,547.2a2.521,2.521,0,0,0,3.4,3.724h0a2.521,2.521,0,1,0-3.4-3.724Z" transform="translate(-478.587 -489.186)" fill="#45484c"/>
  <path id="Path_71" data-name="Path 71" d="M12.025,506.448h0a10.748,10.748,0,0,1,10.648-5.353c5.9.628,10.218,5.667,9.613,11.242a9.837,9.837,0,0,1-2.991,6.04c-.116.652-.221,1.315-.291,1.978-.722,6.761-5.772,11.777-11.288,11.184s-9.391-6.552-8.67-13.313c.337-3.189,1.117-9.764,2.979-11.765Zm-.023,16a9.913,9.913,0,0,0,1.35,3.235,6.477,6.477,0,0,0,4.667,3.107,6.437,6.437,0,0,0,5.214-2.06,10.242,10.242,0,0,0,2-2.874,11.615,11.615,0,0,0,1.047-3.805c.081-.768.209-1.525.326-2.165l.151-.884.652-.617a6.988,6.988,0,0,0,2.153-4.341c.431-4.061-2.793-7.751-7.18-8.228a8.416,8.416,0,0,0-4.748.861c-1.385.71-3.375,3.4-3.375,3.4a10.788,10.788,0,0,0-1.606,4.352c-.431,2.095-.7,4.341-.873,6.063A11.749,11.749,0,0,0,12,522.438h0Zm26.126-21.366A4.295,4.295,0,1,1,33.4,504.9a4.3,4.3,0,0,1,4.725-3.817h0Z" transform="translate(-8.959 -448.586)" fill="#45484c"/>
  <path id="Path_72" data-name="Path 72" d="M188.594,473.031a2.306,2.306,0,1,1-4.585-.489h0a2.306,2.306,0,0,1,4.585.489Z" transform="translate(-163.627 -422.153)" fill="#45484c"/>
  <path id="Path_73" data-name="Path 73" d="M139.094,447.831a2.306,2.306,0,1,1-4.585-.489h0a2.306,2.306,0,1,1,4.585.489Z" transform="translate(-119.887 -399.942)" fill="#45484c"/>
  <path id="Path_74" data-name="Path 74" d="M88.594,443.231a2.306,2.306,0,1,1-4.585-.489h0a2.306,2.306,0,1,1,4.585.489Z" transform="translate(-75.264 -395.887)" fill="#45484c"/>
  <path id="Path_75" data-name="Path 75" d="M36.794,456.831a2.306,2.306,0,1,1-4.585-.489h0a2.306,2.306,0,0,1,4.585.489Z" transform="translate(-29.492 -407.874)" fill="#45484c"/>
  <path id="Path_76" data-name="Path 76" d="M267.606,166.73c-3.41,3.736-4.061,8.67-1.466,11.044s7.46,1.257,10.858-2.467h0c3.41-3.736,4.061-8.682,1.466-11.044s-7.46-1.257-10.858,2.467Z" transform="translate(-234.807 -151.376)" fill="#8184af"/>
  <path id="Path_77" data-name="Path 77" d="M212.741,128.5h0a10.761,10.761,0,0,1,11.021-4.539c5.842,1.071,9.752,6.424,8.74,11.94a9.786,9.786,0,0,1-3.433,5.8c-.163.64-.326,1.292-.442,1.943-1.234,6.692-6.645,11.3-12.1,10.3s-8.868-7.239-7.634-13.93c.582-3.154,1.862-9.659,3.864-11.509Zm-1.234,15.943a9.85,9.85,0,0,0,1.106,3.328,6.043,6.043,0,0,0,9.764,1.8,10.164,10.164,0,0,0,2.211-2.712,11.878,11.878,0,0,0,1.327-3.712c.14-.756.326-1.5.489-2.13l.221-.873.687-.57a6.972,6.972,0,0,0,2.479-4.166c.745-4.027-2.188-7.937-6.529-8.74a8.4,8.4,0,0,0-4.795.5c-1.431.605-3.631,3.13-3.631,3.13a10.929,10.929,0,0,0-1.932,4.213c-.594,2.06-1.024,4.283-1.338,5.982a11.847,11.847,0,0,0-.081,3.945h.023Zm27.674-19.318a4.3,4.3,0,1,1-5,3.445,4.3,4.3,0,0,1,5-3.445Z" transform="translate(-185.4 -116.69)" fill="#45484c"/>
  <path id="Path_78" data-name="Path 78" d="M401.029,102.979a2.3,2.3,0,0,1-4.527-.826h0a2.308,2.308,0,0,1,4.539.838h0Z" transform="translate(-351.367 -95.922)" fill="#45484c"/>
  <path id="Path_79" data-name="Path 79" d="M353.629,74.079a2.3,2.3,0,0,1-4.527-.826h0a2.3,2.3,0,0,1,4.527.826Z" transform="translate(-309.483 -70.385)" fill="#45484c"/>
  <path id="Path_80" data-name="Path 80" d="M303.629,65.679a2.3,2.3,0,1,1-4.527-.826h0a2.3,2.3,0,1,1,4.527.826Z" transform="translate(-265.302 -62.963)" fill="#45484c"/>
  <path id="Path_81" data-name="Path 81" d="M251.029,75.279a2.3,2.3,0,0,1-4.527-.826h0a2.3,2.3,0,0,1,4.527.826Z" transform="translate(-218.823 -71.446)" fill="#45484c"/>
  <path id="Path_82" data-name="Path 82" d="M360.127,549.856a6.369,6.369,0,0,1-1.5-5.679,1.5,1.5,0,0,1,2.933.652,3.342,3.342,0,1,0,6.6.582,1.5,1.5,0,1,1,3-.116,6.348,6.348,0,0,1-11.032,4.55Z" transform="translate(-317.797 -486.013)" fill="#52a76e"/>
  <path id="Path_83" data-name="Path 83" d="M427.886,618.522a3.313,3.313,0,0,1-.663-3.468A1.505,1.505,0,0,1,430,616.206a.343.343,0,0,0,.1.291c.116.128.081.081.128.1a1.5,1.5,0,0,1-1.35,2.677,3.2,3.2,0,0,1-1-.756Z" transform="translate(-378.341 -548.522)" fill="#52a76e"/>
</svg>
