<?xml version="1.0" encoding="UTF-8"?>
<svg id="Camada_2" data-name="Camada 2" xmlns="http://www.w3.org/2000/svg" viewBox="0 0 366.34 548.96">
  <defs>
    <style>
      .cls-1 {
        fill: #4b4e6d;
      }

      .cls-2 {
        fill: #52a76e;
      }

      .cls-3 {
        fill: #dbeadf;
      }
    </style>
  </defs>
  <g id="Camada_1-2" data-name="Camada 1">
    <g>
      <path class="cls-3" d="M358.88,79.54c6.8-6.8,7.93-17.16,3.39-25.15,2.65-5.2,4.06-10.98,4.06-16.99,0-9.99-3.89-19.38-10.95-26.44C348.32,3.9,338.93,0,328.93,0c-9.99,0-19.37,3.9-26.43,10.96l-4.49,4.49c-7.48-3.99-15.88-6.13-24.46-6.13H69.48c-28.7,0-52.05,23.35-52.05,52.05v38.49C7.36,102.89,0,112.25,0,123.29s7.36,20.4,17.44,23.43v17.08c-10.07,3.03-17.44,12.38-17.44,23.43s7.36,20.4,17.44,23.43v17.08c-10.07,3.03-17.44,12.38-17.44,23.43s7.36,20.4,17.44,23.43v43.14c0,28.7,23.35,52.05,52.05,52.05h89.02c-3.39,1.4-6.39,3.64-8.65,6.57-1.93,2.5-3.99,4.55-6.13,6.09-2.46,1.78-4.46,3.95-5.98,6.36-.57-.04-1.15-.07-1.74-.07-3.06,0-6.04.61-8.8,1.73-7.28-3.51-15.9-3.06-22.67,1.25-1.29.82-2.47,1.75-3.53,2.78-6.58-.29-13.06.81-18.65,3.34-1.21.55-2.37,1.16-3.49,1.83-9.41-9.31-22.11-13.09-35.16-10.18-17.86,3.99-29.48,19.8-27.03,36.78.36,2.48.94,4.74,1.7,6.8-2.86,4.68-3.96,10.28-2.98,15.94,1.55,9.02,7.08,17.02,15.57,22.53,6.65,4.31,14.73,6.84,22.77,7.13.52.02,1.04.03,1.55.03,1.06,0,2.1-.04,3.13-.12.18,2.37.71,4.7,1.58,6.89.05,1.81.11,3.62.17,5.43.16,5.17.32,10.06.32,14.97,0,1.38-.18,3.29-.37,5.31-.43,4.49-.96,10.09-.06,15.88,2.04,13.13,11.81,21.47,25.48,21.77l1.72.04c1.72.04,3.55.09,5.47.09,4.78,0,10.07-.3,15.31-1.67,5-1.31,9.5-3.66,13.29-6.85,5.32,3.89,11.54,6.39,18.38,7.28,2.67.35,5.36.52,8.04.52,8.48,0,16.84-1.73,24.15-5.06,1.4-.64,2.74-1.33,4.05-2.08,4.12,3.88,9.72,6.23,15.97,6.23,5.78,0,11-2,15-5.36,5.97,4.96,14.11,6.52,21.69,4,4.66,1.53,9.98,2.28,15.45,2.28,9.36,0,19.12-2.18,26.63-6.37,2.66-1.48,5.15-3.18,7.43-5.05,6.12,5.96,13.89,9.74,22.65,10.88,2.67.35,5.36.52,8.04.52,8.48,0,16.84-1.73,24.15-5.06,12.13-5.52,20.89-15.24,24.65-27.37,4.5-14.5-.08-29.96-5.87-39.58-1.71-2.84-3.74-5.39-6.04-7.65,3.6-4.49,5.41-10.38,4.54-16.49-.75-5.24-.85-11.04-.96-17.17-.05-3.04-.11-6.18-.25-9.36-.34-7.69-4.59-14.39-11.38-17.93-3.72-1.93-7.85-2.71-11.88-2.36-.17-.14-.33-.28-.51-.41-.89-.66-1.7-1.46-2.35-2.32-6.26-8.29-17.26-10.62-26.16-5.56-2.07,1.18-3.89,2.71-5.4,4.5-5.11-6.38-11.18-9.85-16.62-11.72l57.24-42.86c13.73-8.8,22.9-23.03,25.22-39.19,3.58-24.92-9.92-48.43-31.59-58.64V112.84l33.29-33.29ZM69.48,322.02c-2.36,0-4.28-1.92-4.28-4.28v-35.33c1.13.12,2.28.19,3.44.19,17.33,0,31.44-14.1,31.44-31.44s-13.16-30.47-29.68-31.39c16.52-.91,29.68-14.64,29.68-31.39s-14.1-31.44-31.44-31.44c-1.16,0-2.3.07-3.44.19v-2.61c1.13.12,2.28.19,3.44.19,17.33,0,31.44-14.1,31.44-31.44s-14.1-31.44-31.44-31.44c-1.16,0-2.3.07-3.44.19v-30.68c0-2.36,1.92-4.28,4.28-4.28h186.88l-12.04,12.04c-.54.54-1.03,1.12-1.49,1.72-.59.46-1.17.95-1.71,1.48l-112.25,112.25c-2.08,2.08-3.62,4.63-4.48,7.43l-12.24,39.52c-1.98,6.4-.26,13.37,4.47,18.11,3.44,3.45,8.06,5.3,12.79,5.3,1.78,0,3.57-.26,5.32-.8l39.58-12.19c2.82-.87,5.38-2.41,7.46-4.49l96.06-96.06v107.73c-.94.44-1.87.91-2.79,1.4-8.39-8.35-19.37-13.97-31.53-15.71-30.57-4.39-59,16.9-63.4,47.47-2.01,13.98,1.39,28.19,9.34,39.73h-119.96ZM65.2,219.63c.57.06,1.14.11,1.72.14-.58.03-1.15.08-1.72.14v-.29ZM223.72,369.78c.48,0,.96-.02,1.43-.06l15.99,21.35c-2.23.92-4.36,2-6.34,3.26-5.86-4.97-13.88-6.79-21.32-4.73-7.38,2.04-13.04,7.55-15.38,14.87-1.56.23-3.1.55-4.62.95-.96-3.55-2.73-6.72-5.13-9.33,2.08-7.54.18-15.68-5.61-21.47-2.1-2.1-4.65-3.73-7.43-4.84h48.42Z"/>
      <g>
        <path class="cls-1" d="M299.06,449.78c.49,4.4,2.52,8.01,5.73,10.18,2.1,1.42,4.59,2.14,7.25,2.14,1.42,0,2.9-.21,4.39-.62,2.79-.78,5.76-2.3,8.25-4.18.61,2.1,2.48,3.31,4.77,2.98,2.58-.37,4.97-2.66,4.52-5.85-.89-6.25-1.01-12.84-1.12-19.21-.05-2.94-.11-5.97-.23-8.93-.08-1.79-1.01-3.27-2.55-4.07-1.63-.85-3.64-.78-5.13.17-1.35.86-2.09,2.34-2.01,4.04,0,.22.02.44.03.66-4.66-1.68-10.1-1.71-13.99.04-7.66,3.46-10.81,14.25-9.88,22.65ZM312.01,436.72c.86-.7,2.44-1.08,4.17-1.08.72,0,1.46.07,2.19.21,2.04.39,3.63,1.29,4.25,2.4.19.34.4.64.65.92.04,1.29.08,2.59.13,3.88-.85.64-1.43,1.6-1.66,2.77-.34,1.77-3.29,4.27-5.26,5.27-2.34,1.2-4.56,1.46-5.94.69-1.1-.61-1.74-1.9-1.91-3.83-.33-3.81.87-9.19,3.37-11.22Z"/>
        <path class="cls-1" d="M117.63,485.32c-2.45-16.02-22.21-15.6-34.02-15.34-.84.02-1.64.04-2.41.05-2.81.04-5.06,1.61-6.01,4.19-.89,2.41-.42,5.16,1.12,6.99,0,.06,0,.13,0,.19.06,3,.16,5.99.25,8.98.16,5.07.33,10.32.33,15.49,0,2.16-.22,4.45-.45,6.87-.38,3.95-.77,8.04-.18,11.79,1.07,6.89,6,7.8,9.62,7.88l1.78.04c1.62.04,3.31.09,5.03.09,3.78,0,7.66-.21,11.16-1.13,4.72-1.24,8.44-4.09,10.74-8.23,2.64-4.75,3.15-10.75,1.38-16.46-.68-2.22-1.85-4.21-3.46-5.93,4.43-3.52,6.15-8.7,5.12-15.45ZM89.75,517.81c.3-3.02.49-5.42.48-8.04,0-1.05-.01-2.1-.03-3.15,4.49.07,13.21.95,13.56,6.68.1,1.54-.25,2.69-1.04,3.53-2.19,2.29-7.53,2.21-11.43,2.16-.57,0-1.12-.02-1.63-.02.02-.4.05-.79.09-1.16ZM104.45,488.8c-.52,1.85-3.03,3.56-5.72,3.88h0c-2.83.34-5.85.46-8.78.56l-.08-3c-.06-2.43-.13-4.87-.19-7.31,5.13-.2,10.12.1,13.23,2.56,1.33,1.05,1.85,2.17,1.53,3.31Z"/>
        <path class="cls-1" d="M163.17,474.71c-6.9-3.3-14.93-3.47-22.63-.47-8.35,3.25-15.21,9.9-18.34,17.81-3.52,8.89-2.76,19.44,2,27.53,3.93,6.68,10.18,10.89,17.59,11.85,1.92.25,3.89.38,5.88.38,13.75,0,28.57-6.12,33.14-20.86,2.71-8.73-.19-19.48-4.26-26.25-2.98-4.95-7.48-8.31-13.4-9.99ZM166.58,510.14c-3.95,5.97-11,8.74-20.94,8.25-4.02-.2-7.31-1.96-9.53-5.1-2.83-4.02-3.57-9.91-1.93-15.37,2.14-7.11,9.75-12.47,17.23-12.47.47,0,.94.02,1.4.06,1.05.83,2.32,1.32,3.72,1.43.57.04,1.16.15,1.81.31.03.01.06.03.09.04.03.02.07.03.1.05.68.4,1.41.68,2.16.83,3.43,1.79,6.18,5.48,7.37,9.92,1.19,4.44.65,8.83-1.48,12.06l1.37.91-1.37-.91Z"/>
        <path class="cls-1" d="M267.25,475.99l-.76,1.45.76-1.46c-8.3-4.34-17.41-3.32-26.21-2.33-2.18.25-4.24.48-6.3.63-4.46.33-6.59,4.17-6.33,7.6.27,3.64,2.97,6.01,6.58,5.73.8-.06,1.64-.14,2.54-.23.02,7.34.01,14.76,0,21.95,0,2.74,0,5.47,0,8.21-.46-.13-.88-.28-1.27-.44-3.2-1.33-6.36-.03-7.69,3.17-.26.62-.43,1.28-.52,1.95-.15-.5-.37-1-.66-1.51-.02-.03-.04-.07-.06-.1-3.08-5.27-6.41-9.98-9.93-14.02,2.97-4.18,3.54-9.79,3.84-14.79.18-3.14.2-13.77-7.33-18.49-5.16-3.23-12.09-3.3-18.21-3.35-.99,0-1.96-.02-2.88-.04-2.11-.05-3.95.79-5.16,2.37-1.21,1.19-1.85,2.77-1.85,4.6,0,7.91-.15,15.96-.29,23.73-.14,7.78-.29,15.83-.29,23.75,0,4.27,3.36,6.5,6.67,6.5,1.71,0,3.32-.57,4.53-1.61,1.38-1.19,2.14-2.92,2.14-4.89,0-3.41.03-7.02.09-11.53,2.23.21,4.36.21,6.35,0,3.8,3.86,7.44,8.77,10.84,14.61,2.15,3.68,6.17,3.92,9.03,2.26,1.68-.98,2.97-2.62,3.34-4.56.51,1.96,1.83,3.74,4.1,4.69,3.21,1.34,7.33,1.98,11.65,1.98,6.6,0,13.67-1.5,18.71-4.3,9.64-5.37,15.51-14.49,16.97-26.38,1.33-10.83-3.41-20.47-12.4-25.17ZM207.95,490.15c0,1.92.01,7.75-2.3,8.97,0,0,0,0,0,0-1.39.74-3.77.88-6.77.42.11-6.02.18-11.18.22-15.98,1.36.09,2.56.19,3.7.33,4.09.48,5.15,1.76,5.16,6.27ZM250.87,486.39h.12c6.35,0,10.47,1.19,12.89,3.71,2.02,2.1,2.86,5.16,2.57,9.37-.54,7.73-5.11,14.31-11.95,17.16-1,.42-2.24.78-3.64,1.06,0-2.86,0-5.72,0-8.58.01-7.44.02-15.12,0-22.72Z"/>
        <path class="cls-1" d="M324.23,474.71c-6.9-3.3-14.93-3.47-22.63-.47-8.35,3.25-15.21,9.9-18.34,17.81-3.52,8.89-2.76,19.44,2,27.53,3.93,6.68,10.18,10.89,17.59,11.85,1.92.25,3.89.38,5.88.38,13.75,0,28.57-6.12,33.14-20.86,2.71-8.73-.19-19.48-4.26-26.25-2.98-4.95-7.48-8.31-13.4-9.99ZM327.64,510.14c-3.95,5.97-11,8.74-20.94,8.25-4.02-.2-7.31-1.96-9.53-5.1-2.83-4.02-3.57-9.91-1.93-15.37,2.14-7.11,9.75-12.47,17.23-12.47.47,0,.94.02,1.4.06,1.05.83,2.32,1.32,3.72,1.43.57.04,1.16.15,1.81.31.03.01.06.03.09.04.03.02.07.03.1.05.68.4,1.41.68,2.16.83,3.43,1.79,6.18,5.48,7.37,9.92,1.19,4.44.65,8.83-1.48,12.06l1.37.91-1.37-.91Z"/>
        <path class="cls-1" d="M59.57,428.22h0c-.76-.29-1.86-.56-3.25-.9-3.42-.83-9.15-2.23-10.42-4.58-.28-.53-.3-1.07-.05-1.76.62-1.72,1.94-2.73,3.92-3,3.56-.49,7.96,1.55,9.51,3.7,2.48,3.45,6.86,3.43,9.66,1.41,2.83-2.03,3.39-5.41,1.37-8.22-5.71-7.94-14.11-11.35-23.03-9.35-7.99,1.78-15.73,8.84-14.35,18.41,1.44,10.02,10.21,12.77,17.95,15.19l1.51.48c.32.1.65.2.98.3,4.19,1.28,6.7,2.32,6.35,5.93-.12,1.19-.54,2.03-1.28,2.56-1.22.87-3.49,1.01-6.06.38-1.78-.43-7.62-2.13-8.23-5.67-.38-2.2-1.64-3.8-3.55-4.5-2.16-.8-4.8-.27-6.73,1.33-1.88,1.57-2.72,3.87-2.31,6.3,1.65,9.59,12.85,15.68,22.73,16.03.33.01.66.02.98.02,8.78,0,15.04-4.28,16.84-11.58,2.45-9.98-2.36-18.59-12.55-22.46Z"/>
        <path class="cls-1" d="M125.73,453.39h0c-1.36-9.5-1.53-19.48-1.7-29.13-.08-4.43-.16-9.01-.35-13.47-.1-2.39-1.34-4.38-3.4-5.45-2.19-1.14-4.91-1.06-6.91.22-1.79,1.14-2.75,3.1-2.66,5.37.03.76.06,1.52.09,2.28-7.09-2.91-15.66-3.13-21.68-.41-11.22,5.07-15.82,20.97-14.45,33.37.71,6.4,3.65,11.64,8.3,14.77,3.03,2.05,6.63,3.09,10.49,3.09,2.07,0,4.22-.3,6.4-.91,4.53-1.27,9.38-3.86,13.25-7.01.01.11.03.21.04.32.48,3.33,3.15,5.33,6.48,4.85,3.49-.5,6.73-3.59,6.11-7.89ZM111.47,436.49c-1.32.83-2.2,2.18-2.54,3.92,0,.02,0,.04-.01.07-.63,3.04-5.34,6.94-8.39,8.5-3.84,1.97-7.4,2.34-9.76,1.03-1.92-1.06-3.03-3.23-3.31-6.45-.51-5.98,1.41-14.44,5.4-17.68,1.45-1.18,4.01-1.83,6.82-1.83,1.14,0,2.32.11,3.49.33,3.38.65,5.93,2.12,6.99,4.04.3.54.67,1.03,1.08,1.45.07,2.4.14,4.58.23,6.63Z"/>
        <path class="cls-1" d="M142.49,411.48c0-4.15-3.26-6.32-6.49-6.32-1.66,0-3.22.56-4.4,1.57-1.34,1.16-2.08,2.84-2.08,4.76,0,1.54-.03,3.26-.07,5.11-.32,17.02-.87,45.51,21.59,46.43h0c.41.02.82.03,1.23.03,6.12,0,11.22-1.93,15.17-5.73,10.6-10.23,10.48-32,10.42-45.01v-.84c-.02-4.15-3.29-6.31-6.52-6.31h-.03c-3.21.02-6.45,2.19-6.43,6.33,0,.92.03,2.01.05,3.23.19,9.51.56,27.2-6.32,33.35-1.94,1.73-4.32,2.38-7.28,1.99-10.37-1.37-9.47-22.23-8.99-33.43.09-2.03.16-3.79.16-5.16Z"/>
        <path class="cls-1" d="M201.53,464.34c1.04,0,2.12-.06,3.23-.18,3.84-.43,7.44-1.81,10.75-4.12,1.16,2.23,3.57,3.37,5.93,3.31,3.15-.06,6.33-2.25,6.33-6.32,0-3.11.08-6.29.15-9.36.12-4.81.24-9.78.07-14.7-.15-4.24-.41-8.09-.8-11.77-.08-.73-.26-1.69-.46-2.7-.31-1.62-.83-4.32-.6-5.22.59-2.28.01-4.49-1.59-6.07-1.74-1.72-4.37-2.41-6.7-1.77-2.1.58-3.65,2.2-4.23,4.44-.97,3.72-.57,7.94.04,12.15-7.05-2.56-15.05-2.08-21.51,1.42-8.4,4.55-15.41,17.36-11.85,27.05,2.63,7.16,10.11,13.84,21.23,13.84ZM215.08,437.69c0,1.53,0,3.15-.03,4.9,0,0,0,0,0,0-.29.37-1.28,1.3-1.77,1.75-.42.39-.78.73-.95.92-.37.39-.72.8-1.08,1.2-1.25,1.41-2.44,2.75-3.95,3.6-3.98,2.24-11.16,1.65-13.86-2.23h0c-1.07-1.53-.99-3.42-.74-4.73.58-3.05,2.75-6.42,5.16-8.02,1.82-1.21,4.15-1.79,6.53-1.79,3.22,0,6.52,1.07,8.72,3.12.6.56,1.27.99,1.98,1.28Z"/>
        <path class="cls-1" d="M283,442.91c-2.28-2.17-6.06-2.83-8.88.12h0s-.8.84-.8.84c-3.13,3.32-6.09,6.45-10.46,6.78-4.61.34-10.99-1.06-14.23-4.4-2.07-2.14-3.44-5.28-3.94-8.98,1.68.02,3.36.04,5.06.07,8.71.13,17.72.26,26.34-.65,3.28-.35,5.65-1.66,7.06-3.89,2.32-3.69,1.27-8.81-.03-12.45-3.51-9.85-9.6-15.12-18.64-16.11-10.48-1.15-19.61,1.56-25.05,7.41-10.53,11.32-10.52,32.99.01,43.75,5.17,5.28,12.86,7.97,23.51,8.23.17,0,.34,0,.5,0,8.97,0,14.53-5.83,19.9-11.47,2.89-3.03,1.97-7.02-.35-9.24ZM269.26,423.7h-.06c-2.4,0-4.78.15-7.08.29-.72.04-1.44.09-2.17.13-4.44.25-9,.22-13.43.18.25-.54.51-1.04.78-1.51h0c2.49-4.19,6.57-5.9,13.66-5.75,4.44.1,6.25.7,8.21,3.99.11.23.55,1.34,1.04,2.66h-.96Z"/>
        <path class="cls-1" d="M155.38,406.28c.4.08.79.13,1.18.13,1.06,0,2.05-.31,2.88-.91h0c4.73-3.43,8.6-7.12,11.82-11.28,2.04-2.64,1.99-5.85-.14-7.97-1.14-1.14-2.92-1.78-4.65-1.66-1.5.09-2.78.74-3.62,1.82-2.89,3.73-6.08,6.88-9.48,9.35-2.68,1.94-3.47,5.14-1.93,7.78.8,1.38,2.28,2.41,3.95,2.76Z"/>
        <path class="cls-1" d="M311.43,424.25c.55.41,1.22.62,1.92.62.23,0,.47-.02.71-.07,1.07-.21,2.02-.87,2.56-1.77,1-1.68.52-3.72-1.17-4.97-2.16-1.6-4.07-3.49-5.68-5.62-1.24-1.64-3.27-2.12-4.93-1.17-.9.51-1.57,1.46-1.79,2.55-.2.98,0,1.94.56,2.68,2.26,3,4.82,5.53,7.82,7.75Z"/>
        <path class="cls-1" d="M255.07,83.93c-.62-.62-1.71-.62-2.32,0l-112.25,112.25c-.19.19-.33.42-.41.68l-12.24,39.52c-.18.58-.02,1.22.41,1.65.31.31.73.48,1.16.48.16,0,.32-.02.48-.07l39.58-12.19c.26-.08.49-.22.68-.41l112.25-112.25c.31-.31.48-.73.48-1.16s-.17-.85-.48-1.16l-27.34-27.34Z"/>
        <path class="cls-1" d="M340.86,55.14l2.91-2.91c3.96-3.96,6.14-9.23,6.14-14.83s-2.18-10.87-6.14-14.83c-3.96-3.96-9.23-6.14-14.83-6.15-5.6,0-10.87,2.19-14.83,6.15l-58.16,58.16c-.64.64-.64,1.68,0,2.32l27.34,27.34c.32.32.74.48,1.16.48s.84-.16,1.16-.48l48.86-48.86,2.91,2.91-37.1,37.1c-.85.85-1.32,1.98-1.32,3.19s.47,2.34,1.32,3.19l.31.31c1.76,1.76,4.62,1.76,6.38,0l40.3-40.3c1.76-1.76,1.76-4.62,0-6.38l-6.41-6.41Z"/>
        <rect class="cls-1" x="33.86" y="137.34" width="14.91" height="38.16" rx="1.64" ry="1.64"/>
        <path class="cls-1" d="M35.51,111.57h11.62c.91,0,1.64-.74,1.64-1.64v-48.56c0-11.42,9.29-20.71,20.71-20.71h204.06c4.59,0,8.95,1.48,12.6,4.29.65.5,1.58.44,2.16-.14l8.25-8.25c.32-.32.5-.77.48-1.23-.02-.46-.23-.89-.58-1.19-6.39-5.41-14.53-8.39-22.91-8.39H69.48c-19.64,0-35.62,15.98-35.62,35.62v48.56c0,.91.74,1.64,1.64,1.64Z"/>
        <path class="cls-1" d="M225.19,352.43c.28-.56.21-1.24-.18-1.73l-9.06-11.62c-.31-.4-.79-.63-1.3-.63H69.48c-11.42,0-20.71-9.29-20.71-20.71v-50.88c0-.91-.74-1.64-1.64-1.64h-11.62c-.91,0-1.64.74-1.64,1.64v50.88c0,19.64,15.98,35.62,35.62,35.62h154.23c.63,0,1.2-.36,1.48-.92Z"/>
        <rect class="cls-1" x="33.86" y="201.28" width="14.91" height="38.16" rx="1.64" ry="1.64"/>
        <path class="cls-1" d="M296.22,257.6c3.64-.73,7.44-.95,11.16-.65.46.04.91-.12,1.25-.43.34-.31.53-.75.53-1.21V110.28c0-.65-.38-1.23-.97-1.5-.59-.27-1.28-.16-1.76.27-.05.04-5.02,4.45-11.61,10.13-.36.31-.57.77-.57,1.24v135.56c0,.49.22.96.6,1.27.3.24.66.37,1.04.37.11,0,.22-.01.32-.03Z"/>
        <path class="cls-1" d="M24.46,131.33h31.49c2.74,4.33,7.52,6.97,12.68,6.97,8.28,0,15.01-6.73,15.01-15.01s-6.73-15.01-15.01-15.01c-5.16,0-9.94,2.65-12.68,6.97h-31.49c-4.43,0-8.04,3.6-8.04,8.04s3.6,8.04,8.04,8.04Z"/>
        <path class="cls-1" d="M24.46,195.26h30.83c2.56,4.98,7.69,8.14,13.35,8.14,8.28,0,15.01-6.73,15.01-15.01s-6.73-15.01-15.01-15.01c-4.65,0-9.02,2.16-11.86,5.81H24.46c-4.43,0-8.04,3.6-8.04,8.04s3.6,8.04,8.04,8.04Z"/>
        <path class="cls-1" d="M68.64,266.17c8.28,0,15.01-6.73,15.01-15.01s-6.73-15.01-15.01-15.01c-5.16,0-9.94,2.65-12.68,6.97h-31.49c-4.43,0-8.04,3.6-8.04,8.04s3.6,8.04,8.04,8.04h31.49c2.74,4.33,7.52,6.97,12.68,6.97Z"/>
        <path class="cls-1" d="M271.65,274.06c-5.53-12.34-16.98-21.04-30.49-22.98-21.6-3.1-41.7,11.94-44.8,33.54-1.59,11.08,1.6,22.36,8.77,30.96l49.75,66.46c.26.35.65.58,1.08.64.08.01.16.02.23.02.35,0,.7-.11.98-.33l65.44-48.99c9.96-6.19,16.62-16.39,18.29-27.99,3.1-21.6-11.94-41.7-33.54-44.8-13.51-1.94-26.94,3.19-35.72,13.47Z"/>
      </g>
      <g>
        <g>
          <path class="cls-2" d="M316.8,457.42c3.2-.9,7.07-2.99,9.89-5.79.09.75.17,1.51.28,2.26.58,4.07,6.76,2.34,6.18-1.71-1.32-9.26-.96-18.94-1.37-28.3-.18-4.11-6.59-4.13-6.41,0,.05,1.09.08,2.19.12,3.29-4.6-2.45-10.85-2.91-15.05-1.01-7.25,3.27-9.71,13.86-8.93,20.97.9,8.16,7.5,12.47,15.29,10.29ZM311.79,432.98c3.05-2.48,10.98-1.78,13.08,1.99.24.42.52.75.84.99.05,1.85.11,3.7.19,5.54-.83.29-1.5.97-1.73,2.14h0c-.48,2.54-4.01,5.35-6.13,6.43-4.78,2.44-9.7,1.74-10.23-4.46-.33-3.84.77-10.03,3.97-12.64Z"/>
          <path class="cls-2" d="M116.83,483.1c-2.39-15.63-23.22-14.07-34.78-13.9-5.1.08-6.17,6.33-3.22,8.93-.03.25-.06.49-.06.76.17,8.18.58,16.31.58,24.5,0,5.84-1.55,12.65-.65,18.41.74,4.76,3.48,6.39,8.03,6.49,5.56.12,12.08.48,17.52-.95,10.22-2.68,13.86-13.26,10.97-22.62-.84-2.74-2.44-4.9-4.49-6.61,4.53-2.77,7.27-7.34,6.09-15.01ZM89.92,518.15h0c-.32,0-.71-.03-1.12-.05,0-.97.03-1.94.13-2.91.27-2.66.48-5.18.47-7.88,0-1.6-.03-3.19-.05-4.79,6.3-.16,16.42.98,16.87,8.21.54,8.65-10.67,7.35-16.31,7.41ZM99.75,491.85h0c-3.17.39-6.5.48-9.75.59-.28,0-.55.02-.83.03-.11-4.52-.25-9.04-.34-13.57,5.68-.31,11.95-.31,15.93,2.84,5.19,4.1.5,9.44-5.01,10.11Z"/>
          <path class="cls-2" d="M163.41,473.79c-14.67-7.12-33.08,1.82-38.85,16.4-5.93,14.97,1.13,34.91,18.28,37.15,14.86,1.94,32.38-3.66,37.25-19.34,2.44-7.85.05-18.01-4.1-24.91-2.97-4.94-7.4-7.85-12.58-9.29ZM168.77,508.58h0c-5.01,7.57-13.9,9.41-22.39,8.98-11.43-.57-16.03-12.35-12.95-22.59,2.54-8.42,12.12-14.61,20.89-13.51.78.74,1.82,1.27,3.15,1.37.78.06,1.54.21,2.27.4.14.08.3.13.44.22.63.37,1.25.58,1.85.67,8.18,4.06,11.89,16.67,6.74,24.46Z"/>
          <path class="cls-2" d="M226.77,519.11c-3.04-5.21-6.62-10.36-10.71-14.89,3.44-3.89,4.04-9.88,4.34-14.95.35-5.99-1.05-13.55-6.56-17-5.59-3.5-13.93-2.98-20.25-3.14-1.8-.05-3.08.71-3.88,1.82-.86.81-1.44,1.97-1.44,3.51,0,15.85-.58,31.66-.58,47.49,0,6.47,10.06,6.48,10.06,0,0-4.46.05-8.92.12-13.37,2.81.39,5.76.5,8.6.11.06.07.11.15.18.21,4.49,4.49,8.27,9.85,11.45,15.3,3.26,5.59,11.95.53,8.69-5.08h0ZM207.24,498.11h0c-2.46,1.3-6.3.92-9.21.34.12-6.36.21-12.72.26-19.09,1.85.09,3.69.22,5.52.43,5.04.59,6.6,2.66,6.61,7.9,0,3.21-.14,8.82-3.18,10.42Z"/>
          <path class="cls-2" d="M267.31,474.98h0c-9.82-5.14-21.19-2.3-31.63-1.51-6.42.48-6.47,10.54,0,10.06,1.33-.1,2.78-.25,4.3-.41.04,11.34,0,22.68,0,34.02-1.3-.22-2.51-.53-3.54-.96-5.97-2.49-8.57,7.24-2.67,9.7,8.07,3.36,21.38,1.96,28.93-2.24,9.59-5.34,14.81-14.39,16.14-25.15,1.19-9.67-2.74-18.91-11.53-23.51ZM268.91,497.11c-.57,8.16-5.35,15.39-12.95,18.56-1.59.66-3.67,1.17-5.92,1.49,0-11.63.05-23.24,0-34.86,10.16-.31,19.77,1.79,18.87,14.8Z"/>
          <path class="cls-2" d="M337.05,483.08c-2.97-4.94-7.4-7.85-12.58-9.29-14.67-7.12-33.08,1.82-38.85,16.4-5.93,14.97,1.13,34.91,18.28,37.15,14.86,1.94,32.38-3.66,37.25-19.34,2.44-7.85.05-18.01-4.1-24.91ZM329.84,508.58h0c-5.01,7.57-13.9,9.41-22.39,8.98-11.43-.57-16.03-12.35-12.95-22.59,2.54-8.42,12.12-14.61,20.89-13.51.78.74,1.82,1.27,3.15,1.37.78.06,1.54.21,2.27.4.14.08.3.13.44.22.63.37,1.25.58,1.85.67,8.18,4.06,11.89,16.67,6.74,24.46Z"/>
          <path class="cls-2" d="M59.81,427.29h0c-3.3-1.26-17.05-2.8-14.68-9.33,2.5-6.92,13.17-4.06,16.31.3,3.61,5.01,12.02.18,8.37-4.89-4.98-6.92-12.6-10.66-21.34-8.71-7.66,1.71-14.28,8.26-13.09,16.57,1.39,9.61,10.53,11.85,18.34,14.34,3.78,1.21,9.02,2.29,8.47,7.95-.5,5.15-5.6,5.29-9.37,4.37-3.48-.85-8.75-2.91-9.45-6.99-1.06-6.13-10.39-3.53-9.34,2.58,2.64,15.35,33.12,21.51,37.34,4.35,2.36-9.62-2.66-17.16-11.54-20.54Z"/>
          <path class="cls-2" d="M124.92,451.16c-2-13.99-1.46-28.63-2.07-42.76-.27-6.21-9.96-6.24-9.69,0,.07,1.65.13,3.31.18,4.97-6.95-3.7-16.39-4.4-22.74-1.53-10.96,4.95-14.68,20.94-13.49,31.69,1.37,12.34,11.34,18.85,23.11,15.55,4.83-1.35,10.69-4.51,14.94-8.75.13,1.14.26,2.28.42,3.42.88,6.15,10.21,3.53,9.34-2.58ZM111.37,438.25h0c-.73,3.83-6.06,8.08-9.26,9.72-7.22,3.69-14.66,2.62-15.46-6.73-.5-5.8,1.16-15.16,6-19.1,4.61-3.74,16.6-2.68,19.77,3.01.36.64.79,1.13,1.27,1.5.07,2.79.17,5.59.29,8.38-1.25.44-2.27,1.46-2.61,3.23Z"/>
          <path class="cls-2" d="M151.93,458.92c25.76,1.05,25.18-32.36,25.09-49.9-.03-6.23-9.72-6.24-9.69,0,.05,10.41,2.42,42.58-15.41,40.21-13.85-1.84-10.26-30.99-10.26-40.21,0-6.23-9.69-6.24-9.69,0,0,15.34-3.24,48.96,19.95,49.9Z"/>
          <path class="cls-2" d="M205.4,460.06c4.52-.5,8.46-2.4,11.88-5.29.22,6.01,9.67,5.96,9.67-.21,0-8,.5-16.01.22-24-.14-3.89-.38-7.79-.79-11.65-.22-2.1-1.49-6.68-1.01-8.52,1.57-6.04-7.77-8.61-9.34-2.58-1.1,4.25-.25,9.46.53,14.41-7.02-3.52-15.78-3.61-22.81.19-7.88,4.27-14.35,16.16-11.09,25.04,3.44,9.37,13.29,13.64,22.74,12.59ZM192.9,446.31c-3.23-4.63.64-12.27,4.86-15.06,5.02-3.33,12.99-2.48,17.28,1.49.79.73,1.65,1.11,2.5,1.25.02,2.16,0,4.32-.03,6.48h0c-.04.12-.1.21-.14.33-.17.53-2.5,2.55-3.02,3.11-1.69,1.82-3.21,3.86-5.43,5.12-4.67,2.63-12.74,1.97-16.01-2.72Z"/>
          <path class="cls-2" d="M276.13,441.69h0c-3.56,3.74-6.92,7.72-12.33,8.12-5.08.37-11.96-1.22-15.53-4.9-2.88-2.97-4.31-7.3-4.57-11.78,10.9.07,22.26.58,33.03-.56,7.94-.84,7.9-7.83,5.65-14.16-2.98-8.36-8.18-14.03-17.27-15.03-8.27-.9-17.8.58-23.67,6.9-9.77,10.5-10.16,31.12-.02,41.48,5.77,5.89,14.45,7.54,22.38,7.73,8.41.2,13.63-5.14,19.18-10.96,4.3-4.51-2.54-11.38-6.85-6.85ZM246.72,419.49c3.31-5.58,8.94-6.69,15.11-6.55,4.55.1,7.16.71,9.62,4.86.15.26,1.19,2.96,1.94,5.08-1.1,0-2.21,0-3.31,0-3.1,0-6.12.24-9.22.42-5.29.3-10.61.2-15.91.16.47-1.43,1.06-2.77,1.77-3.97Z"/>
          <path class="cls-2" d="M159.29,401.7c4.33-3.14,8.2-6.72,11.48-10.96,1.36-1.75,1.71-4.1,0-5.81-1.41-1.41-4.44-1.76-5.81,0-2.82,3.65-6.08,6.96-9.82,9.67-1.79,1.3-2.67,3.57-1.47,5.62,1.04,1.77,3.81,2.78,5.62,1.47Z"/>
          <path class="cls-2" d="M313.23,420.46c.9.67,2.28.14,2.81-.74.62-1.04.15-2.15-.74-2.81-2.26-1.68-4.31-3.7-6.01-5.95-.67-.89-1.76-1.33-2.81-.74-.88.5-1.4,1.93-.74,2.81,2.15,2.85,4.61,5.29,7.48,7.42Z"/>
        </g>
        <polygon class="cls-2" points="130.23 234.41 169.81 222.22 282.06 109.97 254.73 82.63 142.47 194.89 130.23 234.41"/>
        <path class="cls-2" d="M339.35,52.68l4.07-4.07c7.55-7.55,7.55-19.79,0-27.34-3.77-3.77-8.72-5.66-13.67-5.67-4.95,0-9.89,1.89-13.67,5.67l-58.16,58.16,27.34,27.34,50.02-50.02,5.23,5.23-38.26,38.26c-1.12,1.12-1.12,2.94,0,4.06l.31.31c1.12,1.12,2.94,1.12,4.06,0l40.3-40.3c1.12-1.12,1.12-2.94,0-4.06l-7.57-7.57Z"/>
        <rect class="cls-2" x="36.33" y="136.52" width="11.62" height="34.87"/>
        <path class="cls-2" d="M47.95,58.91c0-12.32,10.03-22.35,22.35-22.35h204.06c5.11,0,9.83,1.73,13.6,4.63l8.25-8.25c-5.91-5-13.54-8-21.85-8H70.31c-18.74,0-33.98,15.24-33.98,33.98v48.56h11.62v-48.56Z"/>
        <path class="cls-2" d="M70.31,337.62c-12.32,0-22.35-10.03-22.35-22.35v-50.88h-11.62v50.88c0,18.74,15.24,33.98,33.98,33.98h154.23l-9.06-11.62H70.31Z"/>
        <rect class="cls-2" x="36.33" y="200.46" width="11.62" height="34.87"/>
        <path class="cls-2" d="M308.34,252.85V107.82s-4.95,4.4-11.62,10.14v135.56c2.65-.53,5.41-.81,8.22-.81,1.15,0,2.28.05,3.41.14Z"/>
        <path class="cls-2" d="M25.28,127.22h32.43c2.27,4.16,6.67,6.97,11.74,6.97,7.38,0,13.37-5.99,13.37-13.37s-5.99-13.37-13.37-13.37c-5.07,0-9.47,2.82-11.74,6.97H25.28c-3.53,0-6.39,2.86-6.39,6.39s2.86,6.39,6.39,6.39Z"/>
        <path class="cls-2" d="M25.28,191.16h31.87c2.04,4.78,6.78,8.14,12.3,8.14,7.38,0,13.37-5.99,13.37-13.37s-5.99-13.37-13.37-13.37c-4.58,0-8.61,2.3-11.02,5.81H25.28c-3.53,0-6.39,2.86-6.39,6.39s2.86,6.39,6.39,6.39Z"/>
        <path class="cls-2" d="M69.46,262.07c7.38,0,13.37-5.99,13.37-13.37s-5.99-13.37-13.37-13.37c-5.07,0-9.47,2.82-11.74,6.97H25.28c-3.53,0-6.39,2.86-6.39,6.39s2.86,6.39,6.39,6.39h32.43c2.27,4.16,6.67,6.97,11.74,6.97Z"/>
        <path class="cls-2" d="M307.97,259.76c-14.33-2.06-27.93,4.18-35.95,15.06-4.63-12.71-15.93-22.52-30.26-24.58-20.74-2.98-39.96,11.41-42.94,32.15-1.59,11.09,1.78,21.74,8.44,29.71l49.78,66.49,65.49-49.04c9.21-5.71,15.93-15.3,17.59-26.86,2.98-20.74-11.41-39.96-32.15-42.94Z"/>
      </g>
    </g>
  </g>
</svg>