<?xml version="1.0" encoding="UTF-8"?>
<svg id="Camada_1" xmlns="http://www.w3.org/2000/svg" version="1.1" viewBox="0 0 800 800">
  <!-- Generator: Adobe Illustrator 29.0.1, SVG Export Plug-In . SVG Version: 2.1.0 Build 192)  -->
  <defs>
    <style>
      .st0 {
        fill: #45484c;
      }

      .st1 {
        fill: #52a76e;
        fill-rule: evenodd;
      }
    </style>
  </defs>
  <path id="mail-a" class="st1" d="M86.7,142.7h617.2l-308.6,281.3L86.7,142.7ZM66.7,542.7h666.7v100H66.7v-100Z"/>
  <path id="mail-c" class="st0" d="M670.4,150c14.9-10.8,35.7-7.5,46.6,7.4,10.8,14.9,7.5,35.7-7.4,46.6l-291.3,269.5c-11.8,8.5-27.7,8.5-39.4-.2L80.4,191.9c-14.8-10.9-17.9-31.8-7-46.6s31.8-17.9,46.6-7l278.7,266.9,271.6-255.1h0ZM100,100h600c36.8,0,66.7,29.8,66.7,66.7v466.7c0,36.8-29.8,66.7-66.7,66.7H100c-36.8,0-66.7-29.8-66.7-66.7V166.7c0-36.8,29.8-66.7,66.7-66.7ZM100,166.7v466.7h600V166.7H100Z"/>
</svg>