<svg xmlns="http://www.w3.org/2000/svg" width="51" height="51" viewBox="0 0 51 51">
  <g id="User_ID" data-name="User ID" transform="translate(-342 -54)">
    <circle id="Ellipse_1" data-name="Ellipse 1" cx="25.5" cy="25.5" r="25.5" transform="translate(342 54)" fill="#dbeadf"/>
    <circle id="Ellipse_2" data-name="Ellipse 2" cx="21" cy="21" r="21" transform="translate(347 59)" fill="#8184af"/>
    <g id="Symbols" transform="translate(352.397 63.759)">
      <g id="Head_Front_Curly" data-name="Head/Front/Curly">
        <g id="Head" transform="translate(2.897 7.034)">
          <path id="Path_105" data-name="Path 105" d="M14.374,14.272a11.21,11.21,0,0,0,2.982-8.054C16.734-2.638,4.407-.69,2.01,3.78S-.1,19.586,3,20.385c1.236.319,3.869-.462,6.548-2.077L8.492,29.939l4.666.289,2.629-.289,1.569-.425Z" transform="translate(-0.414 0)" fill="#b28b67" fill-rule="evenodd"/>
        </g>
        <path id="hair" d="M30.093,18.618a2.148,2.148,0,0,1,1.5-1.525,1.981,1.981,0,0,1,.553-.055c.067,0,.085.022.117-.025a.612.612,0,0,0,.033-.16,3.012,3.012,0,0,1,.112-.373,3.043,3.043,0,0,1,.734-1.091,3.7,3.7,0,0,1,2.219-1.05,3.236,3.236,0,0,1,1.334.182,5.283,5.283,0,0,1,.648.277c.063.032.268.187.332.177s.211-.185.268-.229A3.922,3.922,0,0,1,40.4,14a4.485,4.485,0,0,1,2.768.66,5.537,5.537,0,0,1,.5.415c.083.078.164.158.241.242q.07.076.135.155c.074.09.062.12.166.057a2.058,2.058,0,0,1,1.321-.3,2.957,2.957,0,0,1,.8.225c.087.037.287.185.379.186s.289-.136.384-.17a3.145,3.145,0,0,1,1.594-.148,4.116,4.116,0,0,1,1.563.615,2.1,2.1,0,0,1,.579.527c.068.094.13.194.207.281.045.051.135.1.159.168a3.432,3.432,0,0,1,.662-.292,1.632,1.632,0,0,1,.932.035,3.707,3.707,0,0,1,1.47,1.044,4.173,4.173,0,0,1,.544.731q.111.188.2.387a1.438,1.438,0,0,0,.089.2c.051.074.085.076.177.108a2.868,2.868,0,0,1,1.221.818,2.815,2.815,0,0,1,.632,1.34.683.683,0,0,0,.025.165c.023.022.118.012.153.016a3.223,3.223,0,0,1,.367.065,3.029,3.029,0,0,1,.645.232,3.372,3.372,0,0,1,1.653,1.974,4,4,0,0,1-.063,2.741,2.678,2.678,0,0,1-.2.4c-.049.078-.064.079-.033.161s.1.18.141.27a3.87,3.87,0,0,1,.292.916,4.3,4.3,0,0,1,.05,1.584,2.287,2.287,0,0,1-.245.7,1.994,1.994,0,0,1-.214.311c-.042.05-.087.1-.134.144a.892.892,0,0,0-.085.078c-.056.071-.067.013-.039.117a4.69,4.69,0,0,0,.186.434c.057.147.109.3.156.446a6.582,6.582,0,0,1,.228.93,2.92,2.92,0,0,1-.206,1.806,1.807,1.807,0,0,1-.511.608,1.9,1.9,0,0,1-.336.2c-.061.029-.139.041-.166.1s.014.189.025.26a4.331,4.331,0,0,1-.051,1.866,2.578,2.578,0,0,1-1.022,1.372,3.179,3.179,0,0,1-3.178.09,3.336,3.336,0,0,1-.709-.488,2.341,2.341,0,0,1-2.46.5,3.533,3.533,0,0,1-2.244-1.854,1.5,1.5,0,0,1-2.376-.312,1.979,1.979,0,0,1-.2-.651c-.016-.119-.006-.239-.018-.356a1.841,1.841,0,0,0-.174-.441,2.435,2.435,0,0,1-.185-.879,4.465,4.465,0,0,1,.034-.472,1.622,1.622,0,0,0-.048-.415,1.9,1.9,0,0,0,.8-.1,1.586,1.586,0,0,0,.621-.437,3.623,3.623,0,0,0,.781-1.46,2.592,2.592,0,0,0-.955-3.179,5.994,5.994,0,0,0-2.811-.149c-.679.154-1.448,1.651-1.486,1.792-.023.087-.012.195-.092.253-.176.128-.466-.094-.6-.2a2.349,2.349,0,0,1-.522-.694,8.588,8.588,0,0,1-.716-1.756c-.132-.468-.217-.95-.39-1.406a2.151,2.151,0,0,0-.865-1.116,7.617,7.617,0,0,0-1.488-.6,3.694,3.694,0,0,1-1.377-.756,1.9,1.9,0,0,1-.236-.263c-.054-.076-.107-.22-.19-.268-.128-.074-.315.119-.426.19a4.92,4.92,0,0,0-1.37,1.36,8.461,8.461,0,0,0-.909,1.619,4.681,4.681,0,0,1-.612,1.35,2.581,2.581,0,0,1-1.539.117,1.945,1.945,0,0,1-.84-.727,1.129,1.129,0,0,1-.1-.74c.03-.149.09-.289.123-.435a1.357,1.357,0,0,1,.113-.352.869.869,0,0,1,.542-.432,2.543,2.543,0,0,1-.585-.793,3.405,3.405,0,0,1-.3-1.034,1.255,1.255,0,0,1,.168-.805,2.12,2.12,0,0,1,.687-.571,4.472,4.472,0,0,1-.957-1.042A3.254,3.254,0,0,1,30.093,18.618Z" transform="translate(-30 -14)" fill="#191847" fill-rule="evenodd"/>
      </g>
    </g>
  </g>
</svg>
